<?xml version="1.0" standalone="no"?>
<!DOCTYPE svg PUBLIC "-//W3C//DTD SVG 20010904//EN"
 "http://www.w3.org/TR/2001/REC-SVG-20010904/DTD/svg10.dtd">
<svg version="1.0" xmlns="http://www.w3.org/2000/svg"
 width="805.000000pt" height="330.000000pt" viewBox="0 0 805.000000 330.000000"
 preserveAspectRatio="xMidYMid meet">

<g transform="translate(0.000000,330.000000) scale(0.100000,-0.100000)"
fill="#000000" stroke="none">
<path d="M6325 3140 c-203 -88 -379 -159 -390 -159 -11 0 -76 12 -145 28 -88
20 -129 25 -138 18 -19 -15 -6 -20 121 -47 59 -13 104 -26 100 -30 -4 -4 -50
-24 -102 -44 l-94 -37 -140 31 c-90 20 -143 28 -150 21 -15 -15 0 -28 40 -34
73 -12 183 -39 183 -46 0 -10 -133 -61 -160 -61 -14 0 -81 13 -150 29 -99 23
-128 27 -138 17 -10 -10 -1 -16 45 -29 79 -23 230 -57 253 -57 34 0 170 68
170 85 0 11 6 14 25 9 32 -8 226 74 233 98 3 13 14 18 39 18 22 0 136 44 316
121 155 67 333 143 396 170 62 26 116 50 119 53 3 4 -10 6 -29 5 -21 0 -178
-62 -404 -159z"/>
<path d="M7100 3275 c-55 -29 -80 -30 -194 -5 -107 24 -116 24 -116 6 0 -9 29
-19 90 -31 50 -10 90 -19 90 -22 0 -9 -107 -53 -130 -53 -14 0 -69 10 -123 22
-74 16 -100 19 -109 10 -17 -17 -9 -21 86 -39 47 -9 86 -20 86 -24 0 -3 -27
-19 -61 -34 l-61 -27 -116 26 c-76 17 -119 23 -126 16 -15 -15 -4 -20 88 -39
47 -9 88 -19 91 -22 7 -8 -114 -59 -138 -59 -10 0 -63 9 -118 21 -55 11 -107
18 -115 15 -33 -13 -8 -25 81 -41 52 -10 95 -20 95 -24 0 -4 -30 -20 -67 -36
l-67 -29 -110 22 c-128 26 -146 27 -146 9 0 -9 32 -19 95 -31 52 -10 95 -20
95 -22 0 -10 -127 -64 -150 -64 -14 0 -72 11 -130 24 -106 25 -120 25 -120 2
0 -8 36 -19 100 -31 55 -11 100 -22 100 -25 0 -3 -35 -20 -77 -39 l-76 -33
-124 28 c-106 24 -126 26 -134 13 -7 -11 7 -17 74 -32 132 -30 132 -30 52 -67
-82 -38 -106 -38 -235 -5 -70 18 -98 21 -108 13 -19 -17 -6 -23 96 -48 51 -12
90 -26 85 -30 -18 -17 -422 -190 -444 -190 -13 0 -75 12 -136 27 -90 22 -115
25 -125 15 -19 -19 -2 -26 140 -62 l125 -31 231 104 c174 78 231 107 230 120
-1 13 7 17 38 17 47 0 188 62 188 83 0 10 12 14 38 15 46 0 172 57 172 77 0
10 11 15 34 15 49 0 176 58 176 81 0 15 6 17 28 13 34 -7 172 51 172 72 0 9
11 14 30 14 38 0 158 54 166 74 4 10 18 16 35 16 38 0 154 53 162 73 4 10 13
14 22 11 22 -9 143 44 156 67 6 12 21 19 39 19 39 0 135 43 143 64 9 23 -19
20 -73 -9z"/>
<path d="M7205 3262 c-17 -17 1 -31 45 -37 28 -4 50 -12 50 -18 0 -15 20 14
20 29 0 11 -106 35 -115 26z"/>
<path d="M7025 3182 c-19 -19 4 -31 85 -47 50 -10 90 -21 90 -25 0 -4 -27 -19
-59 -34 l-60 -26 -115 25 c-108 25 -136 26 -136 6 0 -5 37 -16 83 -25 120 -25
119 -24 57 -56 -67 -35 -88 -36 -215 -5 -93 22 -126 21 -111 -3 3 -5 46 -17
96 -27 49 -10 90 -19 90 -21 0 -8 -121 -64 -138 -64 -11 0 -68 11 -128 25 -73
16 -112 21 -119 14 -15 -15 9 -25 107 -44 48 -10 88 -19 88 -22 0 -10 -132
-63 -157 -63 -16 0 -73 11 -128 25 -62 14 -104 20 -109 14 -17 -15 5 -26 89
-43 44 -10 87 -19 95 -22 8 -3 -18 -20 -63 -40 l-78 -36 -112 26 c-127 30
-144 31 -149 14 -3 -9 29 -21 101 -39 l106 -26 -77 -37 -77 -38 -127 31 c-100
25 -129 29 -136 19 -4 -7 -8 -15 -8 -18 0 -3 39 -14 88 -24 136 -30 134 -28
43 -69 l-81 -37 -128 29 c-70 16 -130 27 -134 24 -5 -2 -8 -10 -8 -18 0 -9 44
-24 136 -45 l136 -32 84 37 c65 29 84 42 84 58 0 16 5 19 29 14 35 -7 193 64
189 85 -2 9 6 12 24 10 37 -4 178 62 178 82 0 11 10 16 34 16 42 0 166 57 166
76 0 9 11 14 29 14 42 0 168 59 174 80 3 13 11 17 25 13 26 -6 162 55 162 73
0 9 12 14 30 14 38 0 145 53 154 76 3 9 12 14 21 10 8 -3 19 3 25 14 13 25 13
30 -3 24 -8 -3 -64 6 -125 19 -61 13 -114 22 -117 19z"/>
<path d="M7215 3047 c-13 -10 -15 -18 -8 -31 8 -15 11 -14 22 10 14 32 11 38
-14 21z"/>
<path d="M7015 2951 c-8 -14 4 -19 79 -33 36 -7 66 -17 66 -23 1 -5 7 1 15 15
l13 25 -61 12 c-77 15 -104 16 -112 4z"/>
<path d="M6827 2874 c-21 -21 0 -32 93 -50 55 -10 100 -21 100 -24 0 -13 -113
-60 -143 -60 -17 0 -78 11 -134 24 -87 19 -105 21 -114 9 -7 -7 -10 -15 -8
-17 2 -2 49 -14 104 -26 54 -11 101 -23 103 -25 7 -6 -126 -65 -148 -65 -11 0
-71 11 -132 25 -105 24 -140 23 -124 -3 3 -5 47 -17 98 -27 51 -10 96 -21 101
-25 9 -8 -124 -70 -152 -70 -11 0 -71 12 -132 26 -101 24 -113 25 -127 10 -19
-19 -23 -17 111 -47 53 -12 97 -23 97 -24 0 -2 -35 -19 -77 -40 l-78 -36 -128
31 c-88 22 -132 29 -139 22 -19 -19 1 -29 108 -52 l106 -24 -73 -37 c-41 -21
-85 -38 -99 -39 -14 0 -78 13 -143 29 -96 23 -119 26 -128 15 -9 -10 -6 -16
12 -24 38 -15 229 -60 260 -60 44 0 179 70 179 93 0 16 5 18 25 13 37 -9 197
66 189 88 -5 13 1 16 31 16 52 0 187 64 179 84 -5 13 1 16 29 16 47 0 168 56
174 80 4 14 11 18 27 15 28 -7 166 59 166 80 0 10 10 15 33 15 38 0 62 16 72
47 6 23 6 23 -24 5 -29 -16 -35 -16 -138 6 -59 12 -117 24 -128 28 -11 3 -24
2 -28 -2z"/>
<path d="M8035 2857 c-4 -10 -5 -21 -1 -24 10 -10 18 4 13 24 -4 17 -4 17 -12
0z"/>
<path d="M7984 2803 c7 -23 -40 -77 -59 -69 -10 3 -15 -1 -15 -13 0 -10 -6
-21 -14 -24 -8 -3 -17 -20 -21 -37 -5 -21 -11 -30 -21 -26 -9 3 -14 -1 -14
-13 0 -10 -6 -21 -14 -24 -8 -3 -12 -14 -10 -24 4 -13 -3 -21 -25 -30 -22 -8
-29 -16 -25 -27 4 -11 0 -16 -13 -16 -11 0 -28 -9 -39 -21 -10 -12 -31 -28
-47 -35 -15 -8 -25 -19 -22 -24 3 -4 -8 -20 -25 -33 -16 -14 -30 -30 -30 -36
0 -6 -4 -11 -10 -11 -13 0 -67 -58 -103 -110 -9 -13 -17 -19 -17 -12 0 6 -4
12 -10 12 -5 0 -10 -5 -10 -10 0 -14 -105 -120 -118 -120 -6 0 -13 -8 -17 -18
-10 -32 -424 -442 -555 -550 -18 -15 -46 -39 -63 -54 -36 -34 -47 -35 -81 -3
-31 28 -32 51 -7 124 l19 53 -41 -6 c-22 -4 -43 -9 -47 -11 -10 -6 8 -85 25
-112 14 -21 13 -22 -42 -29 -120 -15 -203 3 -883 187 -573 155 -1073 290
-1390 373 -486 128 -983 260 -1215 321 -585 155 -677 177 -686 164 -4 -8 -3
-19 2 -26 19 -22 51 -31 924 -259 267 -70 333 -88 715 -189 135 -35 340 -89
455 -119 470 -121 701 -182 810 -213 50 -14 133 -36 185 -49 95 -24 423 -113
750 -204 221 -61 262 -68 440 -74 137 -5 149 -3 218 21 41 14 115 48 165 75
51 28 137 73 192 101 55 27 107 55 115 62 8 7 26 16 40 20 14 4 33 14 42 22
10 9 24 13 33 10 8 -4 15 -2 15 3 0 17 34 50 52 50 23 0 71 22 80 36 4 6 22
17 40 24 18 7 41 20 51 28 9 8 17 12 17 8 0 -4 29 14 65 39 36 25 72 45 80 45
8 0 15 5 15 10 0 6 6 10 14 10 8 0 28 11 44 25 17 14 36 25 44 25 8 0 25 11
37 24 13 13 34 27 47 30 l24 6 0 364 0 363 -25 -5 c-15 -2 -25 0 -25 7 0 6 -5
11 -11 11 -6 0 -8 -8 -5 -17z"/>
<path d="M5145 2748 c-67 -29 -72 -29 -132 -18 -34 7 -67 9 -72 5 -18 -10 -13
-25 8 -25 44 0 26 -19 -47 -50 -48 -20 -90 -32 -112 -30 -75 6 -93 5 -97 -6
-2 -7 35 -20 94 -33 54 -12 125 -29 159 -37 l61 -16 74 31 c94 40 103 46 96
64 -5 14 -18 11 -86 -19 -70 -30 -87 -34 -131 -28 -28 4 -53 10 -55 14 -3 4
23 19 56 34 40 17 59 31 56 39 -4 10 7 13 42 13 72 -1 228 83 169 91 -7 1 -44
-12 -83 -29z"/>
<path d="M7103 2767 c-4 -8 -16 -16 -25 -20 -21 -8 -23 -23 -4 -30 8 -3 19 8
29 29 16 33 16 47 0 21z"/>
<path d="M6872 2648 c-20 -20 -14 -24 58 -37 39 -7 77 -19 84 -26 11 -12 15
-10 25 11 13 30 14 37 3 30 -6 -3 -120 21 -157 34 -1 0 -6 -5 -13 -12z"/>
<path d="M4687 2550 c-78 -34 -102 -36 -169 -16 -40 13 -48 13 -58 0 -14 -16
2 -24 91 -44 55 -12 57 -12 144 26 81 36 105 56 73 61 -7 2 -44 -11 -81 -27z"/>
<path d="M6667 2553 c-21 -20 1 -32 101 -53 59 -12 109 -24 111 -26 2 -2 -31
-20 -74 -39 l-79 -36 -120 26 c-66 15 -126 29 -133 32 -12 5 -30 -23 -21 -32
4 -4 94 -27 198 -51 22 -5 15 -11 -54 -46 l-79 -40 -128 32 c-71 18 -136 30
-144 26 -33 -12 -10 -25 83 -46 53 -11 105 -24 115 -28 13 -5 -19 -25 -122
-76 l-140 -70 -133 31 c-93 21 -137 27 -146 20 -7 -6 -9 -14 -5 -18 4 -4 72
-24 150 -44 l142 -36 140 71 c104 52 141 75 141 88 0 15 6 18 28 14 43 -6 192
71 186 96 -5 15 0 17 33 15 51 -4 180 62 175 91 -3 15 1 17 20 13 37 -10 67 3
83 34 21 39 19 42 -15 24 -40 -21 -73 -19 -196 10 -122 29 -109 27 -117 18z"/>
<path d="M5635 2380 c-82 -38 -163 -69 -180 -69 -16 0 -81 12 -142 28 -94 24
-114 26 -124 15 -14 -18 5 -26 138 -59 149 -37 116 -44 391 85 50 24 92 49 92
57 0 21 -17 16 -175 -57z"/>
<path d="M6943 2428 c-5 -7 -10 -24 -11 -37 -1 -27 0 -26 22 17 16 31 8 45
-11 20z"/>
<path d="M6723 2315 c-23 -17 -19 -20 42 -37 l50 -14 -80 -43 -79 -44 -73 18
c-53 13 -77 15 -84 8 -17 -17 -3 -31 41 -38 22 -4 40 -11 40 -16 0 -5 -37 -27
-81 -50 l-82 -41 -68 17 c-64 16 -89 15 -89 -4 0 -11 116 -43 156 -43 19 0 65
18 112 43 65 34 78 46 74 62 -4 17 -1 18 25 13 39 -9 199 70 197 97 -1 13 6
17 32 17 28 0 36 5 45 26 5 15 7 29 4 32 -3 3 -5 0 -5 -6 0 -16 -57 -15 -113
2 -38 11 -49 12 -64 1z"/>
<path d="M5905 2255 c-38 -19 -81 -34 -95 -34 -14 0 -77 13 -140 29 -85 21
-118 26 -128 18 -7 -6 -9 -14 -5 -18 12 -11 246 -70 277 -70 34 0 189 77 184
92 -7 20 -21 17 -93 -17z"/>
<path d="M4890 1962 c0 -11 6 -24 13 -29 12 -10 472 -134 495 -133 21 0 13 40
-10 50 -21 8 -424 117 -475 128 -18 3 -23 0 -23 -16z"/>
<path d="M5540 1798 c0 -51 31 -73 143 -103 92 -25 100 -25 123 -10 14 9 24
25 24 38 0 21 -10 25 -92 45 -50 13 -96 29 -102 36 -6 8 -30 17 -53 21 l-43 7
0 -34z m220 -88 c0 -10 -38 -1 -45 10 -2 4 7 5 20 2 14 -2 25 -8 25 -12z"/>
<path d="M5758 1773 c7 -3 16 -2 19 1 4 3 -2 6 -13 5 -11 0 -14 -3 -6 -6z"/>
<path d="M5964 1715 c-3 -7 -4 -32 -2 -56 l3 -44 120 -32 c66 -17 123 -28 127
-25 3 4 8 25 10 47 l3 40 -98 25 c-54 14 -101 30 -105 36 -11 17 -53 24 -58 9z"/>
</g>
</svg>
